# xmcd
#
# Track frame offsets:
#	150
#	13928
#	31374
#	49173
#	61282
#	67946
#	88121
#	96327
#	116984
#	130722
#
# Disc length: 1945 seconds
#
# Revision: 1
# Processed by: cddbd v1.5.2PL0 Copyright (c) Steve Scherf et al.
# Submitted via: audiograbber 1.83.01
#
DISCID=8907970a
DTITLE=Dennis Johnson - Slide Show
DYEAR=2010
DGENRE=Blues
TTITLE0=32-20 Blues
TTITLE1=East  St. Louis
TTITLE2=2 In the Morning
TTITLE3=Betty Mae
TTITLE4=Midnight In The Delta
TTITLE5=Judgement Day
TTITLE6=Bordello Stomp
TTITLE7=Down In New Orleans
TTITLE8=Tennessee Dance
TTITLE9=She Looks Good
EXTD=
EXTT0=
EXTT1=
EXTT2=
EXTT3=
EXTT4=
EXTT5=
EXTT6=
EXTT7=
EXTT8=
EXTT9=
PLAYORDER=
